<svg id="artwork" xmlns="http://www.w3.org/2000/svg" viewBox="0 0 316.99 138.07"><defs><style>.cls-1{fill:#505050;}.cls-2{fill:#939393;}</style></defs><path class="cls-1" d="M58.09,42.21c.84.09,1.7.21,2.57.37C59.79,42.42,58.93,42.3,58.09,42.21Z"/><path class="cls-1" d="M63.12,52.67c-.25-.18-.5-.35-.77-.52C62.62,52.32,62.87,52.49,63.12,52.67Z"/><path class="cls-1" d="M64.1,53.5a10,10,0,0,0-1-.83A10,10,0,0,1,64.1,53.5Z"/><rect class="cls-1" x="47.97" y="50.22" height="11.87"/><path class="cls-1" d="M64.1,53.5a8.89,8.89,0,0,1,.85.89A8.89,8.89,0,0,0,64.1,53.5Z"/><path class="cls-1" d="M62,42.86a23.38,23.38,0,0,1,2.63.81A23.38,23.38,0,0,0,62,42.86Z"/><path class="cls-1" d="M67.19,44.87a17.51,17.51,0,0,1,2.48,1.65A17.51,17.51,0,0,0,67.19,44.87Z"/><path class="cls-1" d="M77.64,62.08h0A22.56,22.56,0,0,0,73.72,51,22.56,22.56,0,0,1,77.64,62.08Z"/><rect class="cls-1" x="82.95" y="42.01" width="8.21" height="7.33"/><rect class="cls-1" x="82.95" y="53.98" width="8.21" height="8.11"/><polygon class="cls-1" points="103.3 53.98 94.78 53.98 97.79 62.08 106.09 62.08 103.3 53.98"/><polygon class="cls-1" points="117.06 62.08 125.36 62.08 128.37 53.98 119.85 53.98 117.06 62.08"/><polygon class="cls-1" points="138.65 53.98 130.13 53.98 133.14 62.08 141.43 62.08 138.65 53.98"/><polygon class="cls-1" points="152.41 62.08 160.7 62.08 163.71 53.98 155.19 53.98 152.41 62.08"/><rect class="cls-1" x="167.83" y="42.01" width="8.21" height="7.33"/><rect class="cls-1" x="167.83" y="53.98" width="8.21" height="8.11"/><rect class="cls-1" x="227.61" y="42.01" width="9.34" height="20.07"/><rect class="cls-1" x="203.17" y="42.01" width="9.34" height="20.07"/><path class="cls-1" d="M262.66,51.88c-.44,0-.86,0-1.27,0l0,0H242.79v7.55h0v2.65h8V59.53h10.3A10.17,10.17,0,0,1,268,62.08h10.05A16,16,0,0,0,262.66,51.88Z"/><path class="cls-1" d="M73,50a19.16,19.16,0,0,0-2.2-2.49q-.57-.54-1.17-1a17.51,17.51,0,0,0-2.48-1.65,18.29,18.29,0,0,0-2.59-1.2A23.38,23.38,0,0,0,62,42.86c-.43-.1-.87-.2-1.31-.28-.87-.16-1.73-.28-2.57-.37a46.74,46.74,0,0,0-4.73-.2H38.63V62.08H48V50.22h6.64a14.31,14.31,0,0,1,7.74,1.93c.27.17.52.34.77.52a10,10,0,0,1,1,.83,8.89,8.89,0,0,1,.85.89c.13.15.26.31.38.47a15,15,0,0,1,2.39,4.91,20.64,20.64,0,0,1,.49,2.31h9.43A22.56,22.56,0,0,0,73.72,51C73.49,50.66,73.28,50.34,73,50Z"/><path class="cls-2" d="M77.58,69h0a22.89,22.89,0,0,1-4.15,11.23A22.89,22.89,0,0,0,77.58,69Z"/><path class="cls-2" d="M71.52,82.41l0,0Z"/><rect class="cls-2" x="47.97" y="68.99" height="11.18"/><path class="cls-2" d="M65.26,75.84a11.26,11.26,0,0,0,1.16-1.72A11.26,11.26,0,0,1,65.26,75.84Z"/><rect class="cls-2" x="82.95" y="68.99" width="8.21" height="19.39"/><polygon class="cls-2" points="107.56 88.38 115.59 88.38 122.79 68.99 114.69 68.99 111.58 78.04 108.46 68.99 100.36 68.99 107.56 88.38"/><polygon class="cls-2" points="142.91 88.38 150.93 88.38 158.13 68.99 150.03 68.99 146.92 78.04 143.81 68.99 135.7 68.99 142.91 88.38"/><rect class="cls-2" x="167.83" y="68.99" width="8.21" height="19.39"/><path class="cls-2" d="M203.17,69v1.53c0,6.21.63,10.22,4.89,14.29,3.45,3.57,8.77,4.45,12.1,4.45a16.71,16.71,0,0,0,11.9-4.45c3.57-3.26,4.89-7.4,4.89-14.29V69h-9.34v1.53c0,2.51,0,5-1.31,7.21a6.65,6.65,0,0,1-6.21,3.32,6.82,6.82,0,0,1-6.26-3.51,14,14,0,0,1-1.32-7V69Z"/><path class="cls-2" d="M271.56,70.12v.06a10.35,10.35,0,0,1-10.47,10.59h-10.3V69h-8V99.38H251V88.31h9.88a18,18,0,0,0,1.84.11c10.09,0,17-8.21,17-18q0-.72-.06-1.44h-8.22A10.88,10.88,0,0,1,271.56,70.12Z"/><path class="cls-2" d="M71.5,82.43l0,0a17.22,17.22,0,0,0,1.91-2.19A22.89,22.89,0,0,0,77.58,69H68.16a15.33,15.33,0,0,1-1.74,5.13,11.26,11.26,0,0,1-1.16,1.72,9,9,0,0,1-.89,1c-2.22,2.11-5.43,3.37-9.82,3.37H48V69H38.63V88.38H54.05C62,88.38,67.66,86.15,71.5,82.43Z"/></svg>