<svg id="artwork" xmlns="http://www.w3.org/2000/svg" viewBox="0 0 104 104"><defs><style>.cls-1{fill:#3c3c3c;}.cls-2{fill:#505050;}.cls-3{fill:#939393;}</style></defs><path class="cls-1" d="M79.9,32.73c.39.69.75,1.4,1.08,2.11C80.65,34.13,80.29,33.42,79.9,32.73Z"/><path class="cls-1" d="M64.46,35.85a19.18,19.18,0,0,0-1.27-1.48A19.18,19.18,0,0,1,64.46,35.85Z"/><path class="cls-1" d="M63.19,34.37A18.09,18.09,0,0,0,60,31.72,18.09,18.09,0,0,1,63.19,34.37Z"/><path class="cls-1" d="M84.1,46.06h0a38.27,38.27,0,0,0-3-11A38.27,38.27,0,0,1,84.1,46.06Z"/><path class="cls-2" d="M81,34.84c-.33-.71-.69-1.42-1.08-2.11a32,32,0,0,0-3.07-4.63,29.25,29.25,0,0,0-12.49-9.79q-.53-.22-1.05-.42c-6.3-2.38-12.85-2.67-18-2.67H21.59V46.06h15V28.4H47.25c5.66,0,9.75,1.34,12.78,3.32a18.09,18.09,0,0,1,3.16,2.65,19.18,19.18,0,0,1,1.27,1.48,18.48,18.48,0,0,1,1.22,1.81,26.16,26.16,0,0,1,3.17,8.4H84.1a38.27,38.27,0,0,0-3-11Z"/><path class="cls-3" d="M69.11,57.94C67.56,68.66,61,76.5,47.15,76.5H36.58V57.94h-15V89.68H46.34c24.62,0,36-13.48,37.86-31.74Z"/></svg>